# Blender v3.2.2 OBJ File: ''
# www.blender.org
mtllib Nubes.mtl
o cube
v 16.999664 -0.114536 -16.999664
v 16.999664 0.114542 -16.999664
v -16.999664 0.114542 -16.999664
v -16.999664 -0.114536 -16.999664
v -16.999664 0.114536 16.999664
v -16.999664 -0.114542 16.999664
v 16.999664 0.114536 16.999664
v 16.999647 -0.114542 16.999680
vt 0.748573 0.750412
vt 0.999110 0.501077
vt 0.749279 0.501284
vt 0.999455 0.750380
vt 0.250471 0.500702
vt 0.001085 0.750380
vt 0.249682 0.749677
vt 0.001517 0.499994
vt 0.499422 0.500239
vt 0.500149 0.750166
vt 0.748355 0.998230
vt 0.500193 0.998728
vt 0.498993 0.250415
vt 0.748953 0.250920
vn 0.0000 0.0000 -1.0000
vn -1.0000 0.0000 0.0000
vn 0.0000 0.0001 1.0000
vn -0.0000 0.0000 1.0000
vn 1.0000 0.0000 0.0000
vn 1.0000 -0.0001 0.0000
vn 0.0000 -1.0000 -0.0000
vn 0.0000 1.0000 0.0000
usemtl Material_ray.png
s 1
f 1/1/1 3/2/1 2/3/1
f 1/1/1 4/4/1 3/2/1
f 5/5/2 4/6/2 6/7/2
f 5/5/2 3/8/2 4/6/2
f 7/9/3 5/5/4 8/10/3
f 8/10/3 5/5/4 6/7/4
f 2/3/5 7/9/6 1/1/5
f 1/1/5 7/9/6 8/10/6
f 1/1/7 8/10/7 4/11/7
f 4/11/7 8/10/7 6/12/7
f 2/3/8 5/13/8 7/9/8
f 2/3/8 3/14/8 5/13/8
