# This file uses centimeters as units for non-parametric coordinates.

mtllib Predes.mtl
g default
v 9.601210 0.014997 3.986571
v 9.601210 0.014997 3.786571
v 9.601210 2.514997 3.986571
v 9.601210 2.514997 3.786571
v 3.526023 2.514997 3.986571
v 3.526023 2.514997 3.786571
v 3.526023 0.014997 3.986571
v 3.526023 0.014997 3.786571
v 9.601210 1.985491 3.986571
v 3.526023 1.985491 3.986571
v 3.526023 1.985491 3.786571
v 9.601210 1.985491 3.786571
v 5.751729 1.985491 3.986571
v 5.751729 0.014997 3.986571
v 5.751729 0.014997 3.786571
v 5.751729 1.985491 3.786571
v 5.751729 2.514997 3.786571
v 5.751729 2.514997 3.986571
v 7.403745 1.985491 3.986571
v 7.403745 0.014997 3.986571
v 7.403745 0.014997 3.786571
v 7.403745 1.985491 3.786571
v 7.403745 2.514997 3.786571
v 7.403745 2.514997 3.986571
v 3.526024 2.514997 3.986571
v 9.601212 2.514997 3.986571
v 3.526024 2.714997 3.986571
v 9.601212 2.714997 3.986571
v 3.526024 2.714997 -0.413429
v 9.601212 2.714997 -0.413429
v 3.526024 2.514997 -0.413429
v 9.601212 2.514997 -0.413429
v 3.526023 0.014997 3.786571
v 3.829782 0.014997 3.786571
v 3.526023 2.514997 3.786571
v 3.829782 2.514997 3.786571
v 3.526023 2.514997 -0.213429
v 3.829782 2.514997 -0.213429
v 3.526023 0.014997 -0.213429
v 3.829782 0.014997 -0.213429
v 9.297449 0.014997 3.786571
v 9.601210 0.014997 3.786571
v 9.297449 2.514997 3.786571
v 9.601210 2.514997 3.786571
v 9.297449 2.514997 -0.213429
v 9.601210 2.514997 -0.213429
v 9.297449 0.014997 -0.213429
v 9.601210 0.014997 -0.213429
v 9.601210 0.014997 -0.213429
v 9.601210 0.014997 -0.413429
v 9.601210 2.514997 -0.213429
v 9.601210 2.514997 -0.413429
v 3.526023 2.514997 -0.213429
v 3.526023 2.514997 -0.413429
v 3.526023 0.014997 -0.213429
v 3.526023 0.014997 -0.413429
v 9.601210 1.985491 -0.213429
v 3.526023 1.985491 -0.213429
v 3.526023 1.985491 -0.413429
v 9.601210 1.985491 -0.413429
v 5.751729 1.985491 -0.213429
v 5.751729 0.014997 -0.213429
v 5.751729 0.014997 -0.413429
v 5.751729 1.985491 -0.413429
v 5.751729 2.514997 -0.413429
v 5.751729 2.514997 -0.213429
v 7.403745 1.985491 -0.213429
v 7.403745 0.014997 -0.213429
v 7.403745 0.014997 -0.413429
v 7.403745 1.985491 -0.413429
v 7.403745 2.514997 -0.413429
v 7.403745 2.514997 -0.213429
vt 0.014967 -0.785829
vt 0.985033 -0.785829
vt 0.985033 -0.279085
vt 0.014967 -0.279085
vt 0.014967 -0.142915
vt 0.985033 -0.142915
vt 0.985033 0.089635
vt 0.014967 0.089635
vt 0.014967 0.636171
vt 0.985033 0.636171
vt 0.985033 1.142915
vt 0.014967 1.142915
vt 0.014967 1.553280
vt 0.985033 1.553280
vt 0.985033 1.785829
vt 0.014967 1.785829
vt 1.335917 -0.785829
vt 1.335917 -0.279085
vt -0.335917 -0.785829
vt -0.335917 -0.279085
vt -0.335917 -0.142915
vt 0.014967 0.500000
vt 0.985033 0.500000
vt 1.335917 -0.142915
vt -0.955099 -0.785829
vt -0.599706 -0.785829
vt -0.599706 -0.279085
vt -0.955099 -0.279085
vt 0.985033 1.378453
vt 0.014967 1.378453
vt 1.599706 -0.279085
vt 1.599706 -0.785829
vt 1.955099 -0.785829
vt 1.955099 -0.279085
vt 1.599706 -0.142915
vt 1.955099 -0.142915
vt 0.014967 0.264462
vt 0.985033 0.264462
vt -0.599706 -0.142915
vt -0.955099 -0.142915
vt 0.014967 -0.785829
vt 0.985033 -0.785829
vt 0.985033 -0.142915
vt 0.014967 -0.142915
vt 0.985033 0.500000
vt 0.014967 0.500000
vt 0.985033 1.142915
vt 0.014967 1.142915
vt 0.985033 1.785829
vt 0.014967 1.785829
vt 1.955099 -0.785829
vt 1.955099 -0.142915
vt -0.955099 -0.785829
vt -0.955099 -0.142915
vt 0.014967 -0.785829
vt 0.985033 -0.785829
vt 0.985033 -0.142915
vt 0.014967 -0.142915
vt 0.985033 0.500000
vt 0.014967 0.500000
vt 0.985033 1.142915
vt 0.014967 1.142915
vt 0.985033 1.785829
vt 0.014967 1.785829
vt 1.955099 -0.785829
vt 1.955099 -0.142915
vt -0.955099 -0.785829
vt -0.955099 -0.142915
vt 0.014967 -0.785829
vt 0.985033 -0.785829
vt 0.985033 -0.142915
vt 0.014967 -0.142915
vt 0.985033 0.500000
vt 0.014967 0.500000
vt 0.985033 1.142915
vt 0.014967 1.142915
vt 0.985033 1.785829
vt 0.014967 1.785829
vt 1.955099 -0.785829
vt 1.955099 -0.142915
vt -0.955099 -0.785829
vt -0.955099 -0.142915
vt 0.014967 -0.785829
vt 0.985033 -0.785829
vt 0.985033 -0.279085
vt 0.014967 -0.279085
vt 0.014967 -0.142915
vt 0.985033 -0.142915
vt 0.985033 0.089635
vt 0.014967 0.089635
vt 0.014967 0.636171
vt 0.985033 0.636171
vt 0.985033 1.142915
vt 0.014967 1.142915
vt 0.014967 1.553280
vt 0.985033 1.553280
vt 0.985033 1.785829
vt 0.014967 1.785829
vt 1.335917 -0.785829
vt 1.335917 -0.279085
vt -0.335917 -0.785829
vt -0.335917 -0.279085
vt -0.335917 -0.142915
vt 0.014967 0.500000
vt 0.985033 0.500000
vt 1.335917 -0.142915
vt -0.955099 -0.785829
vt -0.599706 -0.785829
vt -0.599706 -0.279085
vt -0.955099 -0.279085
vt 0.985033 1.378453
vt 0.014967 1.378453
vt 1.599706 -0.279085
vt 1.599706 -0.785829
vt 1.955099 -0.785829
vt 1.955099 -0.279085
vt 1.599706 -0.142915
vt 1.955099 -0.142915
vt 0.014967 0.264462
vt 0.985033 0.264462
vt -0.599706 -0.142915
vt -0.955099 -0.142915
vn 1.000000 0.000000 0.000000
vn 1.000000 0.000000 0.000000
vn 1.000000 0.000000 0.000000
vn 1.000000 0.000000 0.000000
vn 0.000000 1.000000 0.000000
vn 0.000000 1.000000 0.000000
vn 0.000000 1.000000 0.000000
vn 0.000000 1.000000 0.000000
vn -1.000000 0.000000 0.000000
vn -1.000000 0.000000 0.000000
vn -1.000000 0.000000 0.000000
vn -1.000000 0.000000 0.000000
vn 0.000000 -1.000000 0.000000
vn 0.000000 -1.000000 0.000000
vn 0.000000 -1.000000 0.000000
vn 0.000000 -1.000000 0.000000
vn 0.000000 0.000000 -1.000000
vn 0.000000 0.000000 -1.000000
vn 0.000000 0.000000 -1.000000
vn 0.000000 0.000000 -1.000000
vn 0.000000 0.000000 1.000000
vn 0.000000 0.000000 1.000000
vn 0.000000 0.000000 1.000000
vn 0.000000 0.000000 1.000000
vn 0.000000 0.000000 1.000000
vn 0.000000 0.000000 1.000000
vn -1.000000 0.000000 0.000000
vn -1.000000 0.000000 0.000000
vn 0.000000 0.000000 -1.000000
vn 0.000000 0.000000 -1.000000
vn 1.000000 0.000000 0.000000
vn 1.000000 0.000000 0.000000
vn 0.000000 0.000000 1.000000
vn 0.000000 0.000000 1.000000
vn 0.000000 0.000000 1.000000
vn 0.000000 0.000000 1.000000
vn 0.000000 -1.000000 0.000000
vn 0.000000 -1.000000 0.000000
vn 0.000000 -1.000000 0.000000
vn 0.000000 -1.000000 0.000000
vn 0.000000 0.000000 -1.000000
vn 0.000000 0.000000 -1.000000
vn 0.000000 0.000000 -1.000000
vn 0.000000 0.000000 -1.000000
vn 0.000000 0.000000 -1.000000
vn 0.000000 0.000000 -1.000000
vn 0.000000 1.000000 0.000000
vn 0.000000 1.000000 0.000000
vn 0.000000 1.000000 0.000000
vn 0.000000 1.000000 0.000000
vn 0.000000 0.000000 1.000000
vn 0.000000 0.000000 1.000000
vn 0.000000 -1.000000 0.000000
vn 0.000000 -1.000000 0.000000
vn 0.000000 -1.000000 0.000000
vn 0.000000 -1.000000 0.000000
vn -1.000000 0.000000 0.000000
vn -1.000000 0.000000 0.000000
vn -1.000000 0.000000 0.000000
vn -1.000000 0.000000 0.000000
vn 1.000000 0.000000 0.000000
vn 1.000000 0.000000 0.000000
vn 1.000000 0.000000 0.000000
vn 1.000000 0.000000 0.000000
vn 0.000000 0.000000 1.000000
vn 0.000000 0.000000 1.000000
vn 0.000000 0.000000 1.000000
vn 0.000000 0.000000 1.000000
vn 0.000000 1.000000 0.000000
vn 0.000000 1.000000 0.000000
vn 0.000000 1.000000 0.000000
vn 0.000000 1.000000 0.000000
vn 0.000000 0.000000 -1.000000
vn 0.000000 0.000000 -1.000000
vn 0.000000 0.000000 -1.000000
vn 0.000000 0.000000 -1.000000
vn 0.000000 -1.000000 0.000000
vn 0.000000 -1.000000 0.000000
vn 0.000000 -1.000000 0.000000
vn 0.000000 -1.000000 0.000000
vn 1.000000 0.000000 0.000000
vn 1.000000 0.000000 0.000000
vn 1.000000 0.000000 0.000000
vn 1.000000 0.000000 0.000000
vn -1.000000 0.000000 0.000000
vn -1.000000 0.000000 0.000000
vn -1.000000 0.000000 0.000000
vn -1.000000 0.000000 0.000000
vn 0.000000 0.000000 1.000000
vn 0.000000 0.000000 1.000000
vn 0.000000 0.000000 1.000000
vn 0.000000 0.000000 1.000000
vn 0.000000 1.000000 0.000000
vn 0.000000 1.000000 0.000000
vn 0.000000 1.000000 0.000000
vn 0.000000 1.000000 0.000000
vn 0.000000 0.000000 -1.000000
vn 0.000000 0.000000 -1.000000
vn 0.000000 0.000000 -1.000000
vn 0.000000 0.000000 -1.000000
vn 0.000000 -1.000000 0.000000
vn 0.000000 -1.000000 0.000000
vn 0.000000 -1.000000 0.000000
vn 0.000000 -1.000000 0.000000
vn 1.000000 0.000000 0.000000
vn 1.000000 0.000000 0.000000
vn 1.000000 0.000000 0.000000
vn 1.000000 0.000000 0.000000
vn -1.000000 0.000000 0.000000
vn -1.000000 0.000000 0.000000
vn -1.000000 0.000000 0.000000
vn -1.000000 0.000000 0.000000
vn 0.000000 0.000000 1.000000
vn 0.000000 0.000000 1.000000
vn 0.000000 0.000000 1.000000
vn 0.000000 0.000000 1.000000
vn 0.000000 1.000000 0.000000
vn 0.000000 1.000000 0.000000
vn 0.000000 1.000000 0.000000
vn 0.000000 1.000000 0.000000
vn 0.000000 0.000000 -1.000000
vn 0.000000 0.000000 -1.000000
vn 0.000000 0.000000 -1.000000
vn 0.000000 0.000000 -1.000000
vn 0.000000 -1.000000 0.000000
vn 0.000000 -1.000000 0.000000
vn 0.000000 -1.000000 0.000000
vn 0.000000 -1.000000 0.000000
vn 1.000000 0.000000 0.000000
vn 1.000000 0.000000 0.000000
vn 1.000000 0.000000 0.000000
vn 1.000000 0.000000 0.000000
vn -1.000000 0.000000 0.000000
vn -1.000000 0.000000 0.000000
vn -1.000000 0.000000 0.000000
vn -1.000000 0.000000 0.000000
vn 1.000000 0.000000 0.000000
vn 1.000000 0.000000 0.000000
vn 1.000000 0.000000 0.000000
vn 1.000000 0.000000 0.000000
vn 0.000000 1.000000 0.000000
vn 0.000000 1.000000 0.000000
vn 0.000000 1.000000 0.000000
vn 0.000000 1.000000 0.000000
vn -1.000000 0.000000 0.000000
vn -1.000000 0.000000 0.000000
vn -1.000000 0.000000 0.000000
vn -1.000000 0.000000 0.000000
vn 0.000000 -1.000000 0.000000
vn 0.000000 -1.000000 0.000000
vn 0.000000 -1.000000 0.000000
vn 0.000000 -1.000000 0.000000
vn 0.000000 0.000000 -1.000000
vn 0.000000 0.000000 -1.000000
vn 0.000000 0.000000 -1.000000
vn 0.000000 0.000000 -1.000000
vn 0.000000 0.000000 1.000000
vn 0.000000 0.000000 1.000000
vn 0.000000 0.000000 1.000000
vn 0.000000 0.000000 1.000000
vn 0.000000 0.000000 1.000000
vn 0.000000 0.000000 1.000000
vn -1.000000 0.000000 0.000000
vn -1.000000 0.000000 0.000000
vn 0.000000 0.000000 -1.000000
vn 0.000000 0.000000 -1.000000
vn 1.000000 0.000000 0.000000
vn 1.000000 0.000000 0.000000
vn 0.000000 0.000000 1.000000
vn 0.000000 0.000000 1.000000
vn 0.000000 0.000000 1.000000
vn 0.000000 0.000000 1.000000
vn 0.000000 -1.000000 0.000000
vn 0.000000 -1.000000 0.000000
vn 0.000000 -1.000000 0.000000
vn 0.000000 -1.000000 0.000000
vn 0.000000 0.000000 -1.000000
vn 0.000000 0.000000 -1.000000
vn 0.000000 0.000000 -1.000000
vn 0.000000 0.000000 -1.000000
vn 0.000000 0.000000 -1.000000
vn 0.000000 0.000000 -1.000000
vn 0.000000 1.000000 0.000000
vn 0.000000 1.000000 0.000000
vn 0.000000 1.000000 0.000000
vn 0.000000 1.000000 0.000000
vn 0.000000 0.000000 1.000000
vn 0.000000 0.000000 1.000000
vn 0.000000 -1.000000 0.000000
vn 0.000000 -1.000000 0.000000
vn 0.000000 -1.000000 0.000000
vn 0.000000 -1.000000 0.000000
vn -1.000000 0.000000 0.000000
vn -1.000000 0.000000 0.000000
vn -1.000000 0.000000 0.000000
vn -1.000000 0.000000 0.000000
vn 1.000000 0.000000 0.000000
vn 1.000000 0.000000 0.000000
vn 1.000000 0.000000 0.000000
vn 1.000000 0.000000 0.000000
s 1
g ExpoPared
usemtl lambert4SG
f 1/1/1 2/2/2 9/4/3
f 9/4/3 2/2/2 12/3/4
s 2
f 3/5/5 4/6/6 24/8/7
f 24/8/7 4/6/6 23/7/8
s 3
f 10/9/9 11/10/10 7/12/11
f 7/12/11 11/10/10 8/11/12
s 4
f 20/13/13 21/14/14 1/16/15
f 1/16/15 21/14/14 2/15/16
s 5
f 2/2/17 21/17/18 12/3/19
f 12/3/19 21/17/18 22/18/20
s 6
f 20/19/21 1/1/22 19/20/23
f 19/20/23 1/1/22 9/4/24
f 24/21/25 19/20/23 3/5/26
f 3/5/26 19/20/23 9/4/24
s 3
f 5/22/27 6/23/28 10/9/9
f 10/9/9 6/23/28 11/10/10
s 5
f 12/3/19 22/18/20 4/6/29
f 4/6/29 22/18/20 23/24/30
s 1
f 9/4/3 12/3/4 3/5/31
f 3/5/31 12/3/4 4/6/32
s 6
f 7/25/33 14/26/34 10/28/35
f 10/28/35 14/26/34 13/27/36
s 9
f 7/12/37 8/11/38 14/30/39
f 14/30/39 8/11/38 15/29/40
s 5
f 16/31/41 15/32/42 11/34/43
f 11/34/43 15/32/42 8/33/44
f 17/35/45 16/31/41 6/36/46
f 6/36/46 16/31/41 11/34/43
s 2
f 18/37/47 17/38/48 5/22/49
f 5/22/49 17/38/48 6/23/50
s 6
f 10/28/35 13/27/36 5/40/51
f 5/40/51 13/27/36 18/39/52
s 5
f 23/24/30 22/18/20 17/35/45
f 17/35/45 22/18/20 16/31/41
s 2
f 24/8/7 23/7/8 18/37/47
f 18/37/47 23/7/8 17/38/48
s 6
f 18/39/52 13/27/36 24/21/25
f 24/21/25 13/27/36 19/20/23
s 13
f 16/31/53 22/18/54 13/27/55
f 13/27/55 22/18/54 19/20/56
s 14
f 20/19/57 19/20/58 21/14/59
f 21/14/59 19/20/58 22/18/60
s 15
f 14/30/61 15/32/62 13/27/63
f 13/27/63 15/32/62 16/31/64
s 16
f 25/41/65 26/42/66 27/44/67
f 27/44/67 26/42/66 28/43/68
s 17
f 27/44/69 28/43/70 29/46/71
f 29/46/71 28/43/70 30/45/72
s 18
f 29/46/73 30/45/74 31/48/75
f 31/48/75 30/45/74 32/47/76
s 19
f 31/48/77 32/47/78 25/50/79
f 25/50/79 32/47/78 26/49/80
s 20
f 26/42/81 32/51/82 28/43/83
f 28/43/83 32/51/82 30/52/84
s 21
f 31/53/85 25/41/86 29/54/87
f 29/54/87 25/41/86 27/44/88
s 22
f 33/55/89 34/56/90 35/58/91
f 35/58/91 34/56/90 36/57/92
s 23
f 35/58/93 36/57/94 37/60/95
f 37/60/95 36/57/94 38/59/96
s 24
f 37/60/97 38/59/98 39/62/99
f 39/62/99 38/59/98 40/61/100
s 25
f 39/62/101 40/61/102 33/64/103
f 33/64/103 40/61/102 34/63/104
s 26
f 34/56/105 40/65/106 36/57/107
f 36/57/107 40/65/106 38/66/108
s 27
f 39/67/109 33/55/110 37/68/111
f 37/68/111 33/55/110 35/58/112
s 28
f 41/69/113 42/70/114 43/72/115
f 43/72/115 42/70/114 44/71/116
s 29
f 43/72/117 44/71/118 45/74/119
f 45/74/119 44/71/118 46/73/120
s 30
f 45/74/121 46/73/122 47/76/123
f 47/76/123 46/73/122 48/75/124
s 31
f 47/76/125 48/75/126 41/78/127
f 41/78/127 48/75/126 42/77/128
s 32
f 42/70/129 48/79/130 44/71/131
f 44/71/131 48/79/130 46/80/132
s 33
f 47/81/133 41/69/134 45/82/135
f 45/82/135 41/69/134 43/72/136
s 34
f 49/83/137 50/84/138 57/86/139
f 57/86/139 50/84/138 60/85/140
s 35
f 51/87/141 52/88/142 72/90/143
f 72/90/143 52/88/142 71/89/144
s 36
f 58/91/145 59/92/146 55/94/147
f 55/94/147 59/92/146 56/93/148
s 37
f 68/95/149 69/96/150 49/98/151
f 49/98/151 69/96/150 50/97/152
s 38
f 50/84/153 69/99/154 60/85/155
f 60/85/155 69/99/154 70/100/156
s 39
f 68/101/157 49/83/158 67/102/159
f 67/102/159 49/83/158 57/86/160
f 72/103/161 67/102/159 51/87/162
f 51/87/162 67/102/159 57/86/160
s 36
f 53/104/163 54/105/164 58/91/145
f 58/91/145 54/105/164 59/92/146
s 38
f 60/85/155 70/100/156 52/88/165
f 52/88/165 70/100/156 71/106/166
s 34
f 57/86/139 60/85/140 51/87/167
f 51/87/167 60/85/140 52/88/168
s 39
f 55/107/169 62/108/170 58/110/171
f 58/110/171 62/108/170 61/109/172
s 42
f 55/94/173 56/93/174 62/112/175
f 62/112/175 56/93/174 63/111/176
s 38
f 64/113/177 63/114/178 59/116/179
f 59/116/179 63/114/178 56/115/180
f 65/117/181 64/113/177 54/118/182
f 54/118/182 64/113/177 59/116/179
s 35
f 66/119/183 65/120/184 53/104/185
f 53/104/185 65/120/184 54/105/186
s 39
f 58/110/171 61/109/172 53/122/187
f 53/122/187 61/109/172 66/121/188
s 38
f 71/106/166 70/100/156 65/117/181
f 65/117/181 70/100/156 64/113/177
s 35
f 72/90/143 71/89/144 66/119/183
f 66/119/183 71/89/144 65/120/184
s 39
f 66/121/188 61/109/172 72/103/161
f 72/103/161 61/109/172 67/102/159
s 46
f 64/113/189 70/100/190 61/109/191
f 61/109/191 70/100/190 67/102/192
s 47
f 68/101/193 67/102/194 69/96/195
f 69/96/195 67/102/194 70/100/196
s 48
f 62/112/197 63/114/198 61/109/199
f 61/109/199 63/114/198 64/113/200
