# This file uses centimeters as units for non-parametric coordinates.

mtllib SalaDeExpo.mtl
g default
v 3.526024 -0.185003 3.986571
v 9.601211 -0.185003 3.986571
v 3.526024 0.014997 3.986571
v 9.601211 0.014997 3.986571
v 3.526024 0.014997 -0.413429
v 9.601211 0.014997 -0.413429
v 3.526024 -0.185003 -0.413429
v 9.601211 -0.185003 -0.413429
v 9.601210 0.014997 3.986571
v 9.601210 0.014997 3.786571
v 9.601210 2.514997 3.986571
v 9.601210 2.514997 3.786571
v 3.526023 2.514997 3.986571
v 3.526023 2.514997 3.786571
v 3.526023 0.014997 3.986571
v 3.526023 0.014997 3.786571
v 9.601210 1.985491 3.986571
v 3.526023 1.985491 3.986571
v 3.526023 1.985491 3.786571
v 9.601210 1.985491 3.786571
v 5.751728 1.985491 3.986571
v 5.751728 0.014997 3.986571
v 5.751728 0.014997 3.786571
v 5.751728 1.985491 3.786571
v 5.751728 2.514997 3.786571
v 5.751728 2.514997 3.986571
v 7.403745 1.985491 3.986571
v 7.403745 0.014997 3.986571
v 7.403745 0.014997 3.786571
v 7.403745 1.985491 3.786571
v 7.403745 2.514997 3.786571
v 7.403745 2.514997 3.986571
v 3.526024 2.514997 3.986571
v 9.601211 2.514997 3.986571
v 3.526024 2.714997 3.986571
v 9.601211 2.714997 3.986571
v 3.526024 2.714997 -0.413429
v 9.601211 2.714997 -0.413429
v 3.526024 2.514997 -0.413429
v 9.601211 2.514997 -0.413429
v 9.297449 0.014997 3.786571
v 9.601210 0.014997 3.786571
v 9.297449 2.514997 3.786571
v 9.601210 2.514997 3.786571
v 9.297449 2.514997 -0.213429
v 9.601210 2.514997 -0.213429
v 9.297449 0.014997 -0.213429
v 9.601210 0.014997 -0.213429
v 9.601210 0.014997 -0.213429
v 9.601210 0.014997 -0.413429
v 9.601210 2.514997 -0.213429
v 9.601210 2.514997 -0.413429
v 3.526023 2.514997 -0.213429
v 3.526023 2.514997 -0.413429
v 3.526023 0.014997 -0.213429
v 3.526023 0.014997 -0.413429
v 9.601210 1.985491 -0.213429
v 3.526023 1.985491 -0.213429
v 3.526023 1.985491 -0.413429
v 9.601210 1.985491 -0.413429
v 5.751728 1.985491 -0.213429
v 5.751728 0.014997 -0.213429
v 5.751728 0.014997 -0.413429
v 5.751728 1.985491 -0.413429
v 5.751728 2.514997 -0.413429
v 5.751728 2.514997 -0.213429
v 7.403745 1.985491 -0.213429
v 7.403745 0.014997 -0.213429
v 7.403745 0.014997 -0.413429
v 7.403745 1.985491 -0.413429
v 7.403745 2.514997 -0.413429
v 7.403745 2.514997 -0.213429
v 3.526023 0.014997 3.786571
v 3.829782 0.014997 3.786571
v 3.526023 2.514997 3.786571
v 3.829782 2.514997 3.786571
v 3.526023 2.514997 -0.213429
v 3.829782 2.514997 -0.213429
v 3.526023 0.014997 -0.213429
v 3.829782 0.014997 -0.213429
vt 0.014967 -0.785829
vt 0.985033 -0.785829
vt 0.014967 -0.142915
vt 0.985033 -0.142915
vt 0.014967 0.500000
vt 0.985033 0.500000
vt 0.014967 1.142915
vt 0.985033 1.142915
vt 0.014967 1.785829
vt 0.985033 1.785829
vt 1.955099 -0.785829
vt 1.955099 -0.142915
vt -0.955099 -0.785829
vt -0.955099 -0.142915
vt 0.014967 -0.785829
vt 0.985033 -0.785829
vt 0.985033 -0.279085
vt 0.014967 -0.279085
vt 0.014967 -0.142915
vt 0.985033 -0.142915
vt 0.985033 0.089635
vt 0.014967 0.089635
vt 0.014967 0.636171
vt 0.985033 0.636171
vt 0.985033 1.142915
vt 0.014967 1.142915
vt 0.014967 1.553280
vt 0.985033 1.553280
vt 0.985033 1.785829
vt 0.014967 1.785829
vt 1.335917 -0.785829
vt 1.335917 -0.279085
vt -0.335917 -0.785829
vt -0.335917 -0.279085
vt -0.335917 -0.142915
vt 0.014967 0.500000
vt 0.985033 0.500000
vt 1.335917 -0.142915
vt -0.955099 -0.785829
vt -0.599706 -0.785829
vt -0.599706 -0.279085
vt -0.955099 -0.279085
vt 0.985033 1.378453
vt 0.014967 1.378453
vt 1.599706 -0.279085
vt 1.599706 -0.785829
vt 1.955099 -0.785829
vt 1.955099 -0.279085
vt 1.599706 -0.142915
vt 1.955099 -0.142915
vt 0.014967 0.264462
vt 0.985033 0.264462
vt -0.599706 -0.142915
vt -0.955099 -0.142915
vt 0.014967 -0.785829
vt 0.985033 -0.785829
vt 0.985033 -0.142915
vt 0.014967 -0.142915
vt 0.985033 0.500000
vt 0.014967 0.500000
vt 0.985033 1.142915
vt 0.014967 1.142915
vt 0.985033 1.785829
vt 0.014967 1.785829
vt 1.955099 -0.785829
vt 1.955099 -0.142915
vt -0.955099 -0.785829
vt -0.955099 -0.142915
vt 0.014967 -0.785829
vt 0.985033 -0.785829
vt 0.985033 -0.142915
vt 0.014967 -0.142915
vt 0.985033 0.500000
vt 0.014967 0.500000
vt 0.985033 1.142915
vt 0.014967 1.142915
vt 0.985033 1.785829
vt 0.014967 1.785829
vt 1.955099 -0.785829
vt 1.955099 -0.142915
vt -0.955099 -0.785829
vt -0.955099 -0.142915
vt 0.014967 -0.785829
vt 0.985033 -0.785829
vt 0.985033 -0.279085
vt 0.014967 -0.279085
vt 0.014967 -0.142915
vt 0.985033 -0.142915
vt 0.985033 0.089635
vt 0.014967 0.089635
vt 0.014967 0.636171
vt 0.985033 0.636171
vt 0.985033 1.142915
vt 0.014967 1.142915
vt 0.014967 1.553280
vt 0.985033 1.553280
vt 0.985033 1.785829
vt 0.014967 1.785829
vt 1.335917 -0.785829
vt 1.335917 -0.279085
vt -0.335917 -0.785829
vt -0.335917 -0.279085
vt -0.335917 -0.142915
vt 0.014967 0.500000
vt 0.985033 0.500000
vt 1.335917 -0.142915
vt -0.955099 -0.785829
vt -0.599706 -0.785829
vt -0.599706 -0.279085
vt -0.955099 -0.279085
vt 0.985033 1.378453
vt 0.014967 1.378453
vt 1.599706 -0.279085
vt 1.599706 -0.785829
vt 1.955099 -0.785829
vt 1.955099 -0.279085
vt 1.599706 -0.142915
vt 1.955099 -0.142915
vt 0.014967 0.264462
vt 0.985033 0.264462
vt -0.599706 -0.142915
vt -0.955099 -0.142915
vt 0.014967 -0.785829
vt 0.985033 -0.785829
vt 0.985033 -0.142915
vt 0.014967 -0.142915
vt 0.985033 0.500000
vt 0.014967 0.500000
vt 0.985033 1.142915
vt 0.014967 1.142915
vt 0.985033 1.785829
vt 0.014967 1.785829
vt 1.955099 -0.785829
vt 1.955099 -0.142915
vt -0.955099 -0.785829
vt -0.955099 -0.142915
vn 0.000000 0.000000 1.000000
vn 0.000000 0.000000 1.000000
vn 0.000000 0.000000 1.000000
vn 0.000000 0.000000 1.000000
vn 0.000000 1.000000 0.000000
vn 0.000000 1.000000 0.000000
vn 0.000000 1.000000 0.000000
vn 0.000000 1.000000 0.000000
vn 0.000000 0.000000 -1.000000
vn 0.000000 0.000000 -1.000000
vn 0.000000 0.000000 -1.000000
vn 0.000000 0.000000 -1.000000
vn 0.000000 -1.000000 0.000000
vn 0.000000 -1.000000 0.000000
vn 0.000000 -1.000000 0.000000
vn 0.000000 -1.000000 0.000000
vn 1.000000 0.000000 0.000000
vn 1.000000 0.000000 0.000000
vn 1.000000 0.000000 0.000000
vn 1.000000 0.000000 0.000000
vn -1.000000 0.000000 0.000000
vn -1.000000 0.000000 0.000000
vn -1.000000 0.000000 0.000000
vn -1.000000 0.000000 0.000000
vn 1.000000 0.000000 0.000000
vn 1.000000 0.000000 0.000000
vn 1.000000 0.000000 0.000000
vn 1.000000 0.000000 0.000000
vn 0.000000 1.000000 0.000000
vn 0.000000 1.000000 0.000000
vn 0.000000 1.000000 0.000000
vn 0.000000 1.000000 0.000000
vn -1.000000 0.000000 0.000000
vn -1.000000 0.000000 0.000000
vn -1.000000 0.000000 0.000000
vn -1.000000 0.000000 0.000000
vn 0.000000 -1.000000 0.000000
vn 0.000000 -1.000000 0.000000
vn 0.000000 -1.000000 0.000000
vn 0.000000 -1.000000 0.000000
vn 0.000000 0.000000 -1.000000
vn 0.000000 0.000000 -1.000000
vn 0.000000 0.000000 -1.000000
vn 0.000000 0.000000 -1.000000
vn 0.000000 0.000000 1.000000
vn 0.000000 0.000000 1.000000
vn 0.000000 0.000000 1.000000
vn 0.000000 0.000000 1.000000
vn 0.000000 0.000000 1.000000
vn 0.000000 0.000000 1.000000
vn -1.000000 0.000000 0.000000
vn -1.000000 0.000000 0.000000
vn 0.000000 0.000000 -1.000000
vn 0.000000 0.000000 -1.000000
vn 1.000000 0.000000 0.000000
vn 1.000000 0.000000 0.000000
vn 0.000000 0.000000 1.000000
vn 0.000000 0.000000 1.000000
vn 0.000000 0.000000 1.000000
vn 0.000000 0.000000 1.000000
vn 0.000000 -1.000000 0.000000
vn 0.000000 -1.000000 0.000000
vn 0.000000 -1.000000 0.000000
vn 0.000000 -1.000000 0.000000
vn 0.000000 0.000000 -1.000000
vn 0.000000 0.000000 -1.000000
vn 0.000000 0.000000 -1.000000
vn 0.000000 0.000000 -1.000000
vn 0.000000 0.000000 -1.000000
vn 0.000000 0.000000 -1.000000
vn 0.000000 1.000000 0.000000
vn 0.000000 1.000000 0.000000
vn 0.000000 1.000000 0.000000
vn 0.000000 1.000000 0.000000
vn 0.000000 0.000000 1.000000
vn 0.000000 0.000000 1.000000
vn 0.000000 -1.000000 0.000000
vn 0.000000 -1.000000 0.000000
vn 0.000000 -1.000000 0.000000
vn 0.000000 -1.000000 0.000000
vn -1.000000 0.000000 0.000000
vn -1.000000 0.000000 0.000000
vn -1.000000 0.000000 0.000000
vn -1.000000 0.000000 0.000000
vn 1.000000 0.000000 0.000000
vn 1.000000 0.000000 0.000000
vn 1.000000 0.000000 0.000000
vn 1.000000 0.000000 0.000000
vn 0.000000 0.000000 1.000000
vn 0.000000 0.000000 1.000000
vn 0.000000 0.000000 1.000000
vn 0.000000 0.000000 1.000000
vn 0.000000 1.000000 0.000000
vn 0.000000 1.000000 0.000000
vn 0.000000 1.000000 0.000000
vn 0.000000 1.000000 0.000000
vn 0.000000 0.000000 -1.000000
vn 0.000000 0.000000 -1.000000
vn 0.000000 0.000000 -1.000000
vn 0.000000 0.000000 -1.000000
vn 0.000000 -1.000000 0.000000
vn 0.000000 -1.000000 0.000000
vn 0.000000 -1.000000 0.000000
vn 0.000000 -1.000000 0.000000
vn 1.000000 0.000000 0.000000
vn 1.000000 0.000000 0.000000
vn 1.000000 0.000000 0.000000
vn 1.000000 0.000000 0.000000
vn -1.000000 0.000000 0.000000
vn -1.000000 0.000000 0.000000
vn -1.000000 0.000000 0.000000
vn -1.000000 0.000000 0.000000
vn 0.000000 0.000000 1.000000
vn 0.000000 0.000000 1.000000
vn 0.000000 0.000000 1.000000
vn 0.000000 0.000000 1.000000
vn 0.000000 1.000000 0.000000
vn 0.000000 1.000000 0.000000
vn 0.000000 1.000000 0.000000
vn 0.000000 1.000000 0.000000
vn 0.000000 0.000000 -1.000000
vn 0.000000 0.000000 -1.000000
vn 0.000000 0.000000 -1.000000
vn 0.000000 0.000000 -1.000000
vn 0.000000 -1.000000 0.000000
vn 0.000000 -1.000000 0.000000
vn 0.000000 -1.000000 0.000000
vn 0.000000 -1.000000 0.000000
vn 1.000000 0.000000 0.000000
vn 1.000000 0.000000 0.000000
vn 1.000000 0.000000 0.000000
vn 1.000000 0.000000 0.000000
vn -1.000000 0.000000 0.000000
vn -1.000000 0.000000 0.000000
vn -1.000000 0.000000 0.000000
vn -1.000000 0.000000 0.000000
vn 1.000000 0.000000 0.000000
vn 1.000000 0.000000 0.000000
vn 1.000000 0.000000 0.000000
vn 1.000000 0.000000 0.000000
vn 0.000000 1.000000 0.000000
vn 0.000000 1.000000 0.000000
vn 0.000000 1.000000 0.000000
vn 0.000000 1.000000 0.000000
vn -1.000000 0.000000 0.000000
vn -1.000000 0.000000 0.000000
vn -1.000000 0.000000 0.000000
vn -1.000000 0.000000 0.000000
vn 0.000000 -1.000000 0.000000
vn 0.000000 -1.000000 0.000000
vn 0.000000 -1.000000 0.000000
vn 0.000000 -1.000000 0.000000
vn 0.000000 0.000000 -1.000000
vn 0.000000 0.000000 -1.000000
vn 0.000000 0.000000 -1.000000
vn 0.000000 0.000000 -1.000000
vn 0.000000 0.000000 1.000000
vn 0.000000 0.000000 1.000000
vn 0.000000 0.000000 1.000000
vn 0.000000 0.000000 1.000000
vn 0.000000 0.000000 1.000000
vn 0.000000 0.000000 1.000000
vn -1.000000 0.000000 0.000000
vn -1.000000 0.000000 0.000000
vn 0.000000 0.000000 -1.000000
vn 0.000000 0.000000 -1.000000
vn 1.000000 0.000000 0.000000
vn 1.000000 0.000000 0.000000
vn 0.000000 0.000000 1.000000
vn 0.000000 0.000000 1.000000
vn 0.000000 0.000000 1.000000
vn 0.000000 0.000000 1.000000
vn 0.000000 -1.000000 0.000000
vn 0.000000 -1.000000 0.000000
vn 0.000000 -1.000000 0.000000
vn 0.000000 -1.000000 0.000000
vn 0.000000 0.000000 -1.000000
vn 0.000000 0.000000 -1.000000
vn 0.000000 0.000000 -1.000000
vn 0.000000 0.000000 -1.000000
vn 0.000000 0.000000 -1.000000
vn 0.000000 0.000000 -1.000000
vn 0.000000 1.000000 0.000000
vn 0.000000 1.000000 0.000000
vn 0.000000 1.000000 0.000000
vn 0.000000 1.000000 0.000000
vn 0.000000 0.000000 1.000000
vn 0.000000 0.000000 1.000000
vn 0.000000 -1.000000 0.000000
vn 0.000000 -1.000000 0.000000
vn 0.000000 -1.000000 0.000000
vn 0.000000 -1.000000 0.000000
vn -1.000000 0.000000 0.000000
vn -1.000000 0.000000 0.000000
vn -1.000000 0.000000 0.000000
vn -1.000000 0.000000 0.000000
vn 1.000000 0.000000 0.000000
vn 1.000000 0.000000 0.000000
vn 1.000000 0.000000 0.000000
vn 1.000000 0.000000 0.000000
vn 0.000000 0.000000 1.000000
vn 0.000000 0.000000 1.000000
vn 0.000000 0.000000 1.000000
vn 0.000000 0.000000 1.000000
vn 0.000000 1.000000 0.000000
vn 0.000000 1.000000 0.000000
vn 0.000000 1.000000 0.000000
vn 0.000000 1.000000 0.000000
vn 0.000000 0.000000 -1.000000
vn 0.000000 0.000000 -1.000000
vn 0.000000 0.000000 -1.000000
vn 0.000000 0.000000 -1.000000
vn 0.000000 -1.000000 0.000000
vn 0.000000 -1.000000 0.000000
vn 0.000000 -1.000000 0.000000
vn 0.000000 -1.000000 0.000000
vn 1.000000 0.000000 0.000000
vn 1.000000 0.000000 0.000000
vn 1.000000 0.000000 0.000000
vn 1.000000 0.000000 0.000000
vn -1.000000 0.000000 0.000000
vn -1.000000 0.000000 0.000000
vn -1.000000 0.000000 0.000000
vn -1.000000 0.000000 0.000000
s off
g ExposicionPared
usemtl lambert4SG
f 1/1/1 2/2/2 4/4/3 3/3/4
usemtl lambert5SG
f 3/3/5 4/4/6 6/6/7 5/5/8
usemtl lambert4SG
f 5/5/9 6/6/10 8/8/11 7/7/12
f 7/7/13 8/8/14 2/10/15 1/9/16
f 2/2/17 8/11/18 6/12/19 4/4/20
f 7/13/21 1/1/22 3/3/23 5/14/24
s 1
f 9/15/25 10/16/26 20/17/27 17/18/28
s 2
f 11/19/29 12/20/30 31/21/31 32/22/32
s 3
f 18/23/33 19/24/34 16/25/35 15/26/36
s off
f 28/27/37 29/28/38 10/29/39 9/30/40
s 4
f 10/16/41 29/31/42 30/32/43 20/17/44
s 5
f 28/33/45 9/15/46 17/18/47 27/34/48
f 32/35/49 27/34/48 17/18/47 11/19/50
s 3
f 13/36/51 14/37/52 19/24/34 18/23/33
s 4
f 20/17/44 30/32/43 31/38/53 12/20/54
s 1
f 17/18/28 20/17/27 12/20/55 11/19/56
s 5
f 15/39/57 22/40/58 21/41/59 18/42/60
s off
f 15/26/61 16/25/62 23/43/63 22/44/64
s 4
f 24/45/65 23/46/66 16/47/67 19/48/68
f 25/49/69 24/45/65 19/48/68 14/50/70
s 2
f 26/51/71 25/52/72 14/37/73 13/36/74
s 5
f 18/42/60 21/41/59 26/53/75 13/54/76
s 4
f 31/38/53 30/32/43 24/45/65 25/49/69
s 2
f 32/22/32 31/21/31 25/52/72 26/51/71
s 5
f 26/53/75 21/41/59 27/34/48 32/35/49
s off
f 24/45/77 30/32/78 27/34/79 21/41/80
f 28/33/81 27/34/82 30/32/83 29/28/84
f 22/44/85 23/46/86 24/45/87 21/41/88
f 33/55/89 34/56/90 36/57/91 35/58/92
f 35/58/93 36/57/94 38/59/95 37/60/96
f 37/60/97 38/59/98 40/61/99 39/62/100
f 39/62/101 40/61/102 34/63/103 33/64/104
f 34/56/105 40/65/106 38/66/107 36/57/108
f 39/67/109 33/55/110 35/58/111 37/68/112
f 41/69/113 42/70/114 44/71/115 43/72/116
f 43/72/117 44/71/118 46/73/119 45/74/120
f 45/74/121 46/73/122 48/75/123 47/76/124
f 47/76/125 48/75/126 42/77/127 41/78/128
f 42/70/129 48/79/130 46/80/131 44/71/132
f 47/81/133 41/69/134 43/72/135 45/82/136
s 8
f 49/83/137 50/84/138 60/85/139 57/86/140
s 9
f 51/87/141 52/88/142 71/89/143 72/90/144
s 10
f 58/91/145 59/92/146 56/93/147 55/94/148
s off
f 68/95/149 69/96/150 50/97/151 49/98/152
s 11
f 50/84/153 69/99/154 70/100/155 60/85/156
s 12
f 68/101/157 49/83/158 57/86/159 67/102/160
f 72/103/161 67/102/160 57/86/159 51/87/162
s 10
f 53/104/163 54/105/164 59/92/146 58/91/145
s 11
f 60/85/156 70/100/155 71/106/165 52/88/166
s 8
f 57/86/140 60/85/139 52/88/167 51/87/168
s 12
f 55/107/169 62/108/170 61/109/171 58/110/172
s off
f 55/94/173 56/93/174 63/111/175 62/112/176
s 11
f 64/113/177 63/114/178 56/115/179 59/116/180
f 65/117/181 64/113/177 59/116/180 54/118/182
s 9
f 66/119/183 65/120/184 54/105/185 53/104/186
s 12
f 58/110/172 61/109/171 66/121/187 53/122/188
s 11
f 71/106/165 70/100/155 64/113/177 65/117/181
s 9
f 72/90/144 71/89/143 65/120/184 66/119/183
s 12
f 66/121/187 61/109/171 67/102/160 72/103/161
s off
f 64/113/189 70/100/190 67/102/191 61/109/192
f 68/101/193 67/102/194 70/100/195 69/96/196
f 62/112/197 63/114/198 64/113/199 61/109/200
f 73/123/201 74/124/202 76/125/203 75/126/204
f 75/126/205 76/125/206 78/127/207 77/128/208
f 77/128/209 78/127/210 80/129/211 79/130/212
f 79/130/213 80/129/214 74/131/215 73/132/216
f 74/124/217 80/133/218 78/134/219 76/125/220
f 79/135/221 73/123/222 75/126/223 77/136/224
