# This file uses centimeters as units for non-parametric coordinates.

mtllib RetiroParedes.mtl
g default
v -3.150000 0.000000 6.000000
v -2.850000 0.000000 6.000000
v -3.150000 2.500000 6.000000
v -2.850000 2.500000 6.000000
v -3.150000 2.500000 -6.000000
v -2.850000 2.500000 -6.000000
v -3.150000 0.000000 -6.000000
v -2.850000 0.000000 -6.000000
v -2.850000 2.500000 -4.473379
v -3.150000 2.500000 -4.473379
v -3.150000 0.000000 -4.473379
v -2.850000 0.000000 -4.473379
v -2.850000 2.500000 -2.458344
v -3.150000 2.500000 -2.458344
v -3.150000 0.000000 -2.458344
v -2.850000 0.000000 -2.458344
v -2.850000 1.994885 -4.473379
v -2.850000 1.994885 -2.458344
v -2.850000 1.994885 6.000000
v -3.150000 1.994885 6.000000
v -3.150000 1.994885 -2.458344
v -3.150000 1.994885 -4.473379
v -3.150000 1.994885 -6.000000
v -2.850000 1.994885 -6.000000
v -2.850000 0.000000 -6.000000
v -2.850000 0.000000 -6.300000
v -2.850000 2.500000 -6.000000
v -2.850000 2.500000 -6.300000
v -8.850000 2.500000 -6.000000
v -8.850000 2.500000 -6.300000
v -8.850000 0.000000 -6.000000
v -8.850000 0.000000 -6.300000
v -8.850000 0.000000 6.000000
v -8.550001 0.000000 6.000000
v -8.850000 2.500000 6.000000
v -8.550001 2.500000 6.000000
v -8.850000 2.500000 -6.000000
v -8.550001 2.500000 -6.000000
v -8.850000 0.000000 -6.000000
v -8.550001 0.000000 -6.000000
v -2.850000 0.000000 6.300000
v -2.850000 0.000000 6.000000
v -2.850000 2.500000 6.300000
v -2.850000 2.500000 6.000000
v -8.850000 2.500000 6.300000
v -8.850000 2.500000 6.000000
v -8.850000 0.000000 6.300000
v -8.850000 0.000000 6.000000
v -8.850000 2.005898 6.300000
v -2.850000 2.005898 6.300000
v -2.850000 2.005898 6.000000
v -8.850000 2.005898 6.000000
v -6.186359 2.005898 6.300000
v -6.186359 2.500000 6.300000
v -6.186359 2.500000 6.000000
v -6.186359 2.005898 6.000000
v -6.186359 0.000000 6.000000
v -6.186359 0.000000 6.300000
v -4.895684 2.005898 6.300000
v -4.895684 2.500000 6.300000
v -4.895684 2.500000 6.000000
v -4.895684 2.005898 6.000000
v -4.895684 0.000000 6.000000
v -4.895684 0.000000 6.300000
vt 0.000742 1.639286
vt -0.000724 -0.588823
vt 0.250737 1.626220
vt 0.249271 -0.601888
vt 0.500733 1.613155
vt 0.499267 -0.614953
vt 0.750729 1.600090
vt 0.749263 -0.628018
vt 1.000724 1.587025
vt 0.999258 -0.641083
vt -0.002190 -2.816931
vt 0.247805 -2.829997
vt 0.002207 3.867394
vt 0.252203 3.854330
vt 0.467463 -0.613291
vt 0.247992 -2.546540
vt 0.252017 3.570872
vt 0.468929 1.614818
vt 0.002021 3.583938
vt 0.782533 1.598428
vt 0.781067 -0.629681
vt -0.002004 -2.533475
vt 0.425484 -0.611097
vt 0.248238 -2.172397
vt 0.251771 3.196729
vt 0.426950 1.617012
vt 0.001775 3.209794
vt 0.824512 1.596234
vt 0.823046 -0.631874
vt -0.001758 -2.159332
vt 0.197481 -2.543900
vt 0.197727 -2.169757
vt 0.198761 -0.599248
vt 0.200227 1.628860
vt 0.201260 3.199369
vt 0.201506 3.573512
vt 0.201693 3.856969
vt 0.551244 1.610516
vt 0.549778 -0.617593
vt 0.197295 -2.827357
vt 0.000101 1.616786
vt -0.000101 -0.611360
vt 0.249899 -0.613166
vt 0.250101 1.614980
vt 0.499899 -0.614972
vt 0.500101 1.613174
vt 0.749899 -0.616778
vt 0.750101 1.611368
vt 0.999899 -0.618583
vt 1.000101 1.609563
vt -0.000304 -2.839507
vt 0.249696 -2.841312
vt 0.000304 3.844932
vt 0.250304 3.843126
vt -0.000199 1.606072
vt 0.000200 -0.622072
vt 0.250199 -0.618522
vt 0.249801 1.609623
vt 0.500199 -0.614971
vt 0.499801 1.613173
vt 0.750199 -0.611421
vt 0.749801 1.616724
vt 1.000199 -0.607870
vt 0.999800 1.620274
vt 0.000598 -2.850215
vt 0.250598 -2.846665
vt -0.000597 3.834217
vt 0.249403 3.837767
vt 0.199918 1.598729
vt 0.201270 -0.629385
vt 0.250680 -0.627004
vt 0.249328 1.601110
vt 0.388341 1.607810
vt 0.389692 -0.620305
vt 0.500676 -0.614956
vt 0.499324 1.613158
vt 0.550085 -0.612575
vt 0.548734 1.615540
vt 0.749320 1.625206
vt 0.750672 -0.602908
vt 0.861656 -0.597559
vt 0.860304 1.630556
vt 0.202022 -1.868350
vt 0.202622 -2.857500
vt 0.252031 -2.855118
vt 0.251431 -1.865969
vt 0.198566 3.826843
vt 0.199167 2.837694
vt 0.248576 2.840075
vt 0.247976 3.829224
vt -0.002020 3.817175
vt -0.001420 2.828027
vt -0.000669 1.589062
vt 0.000683 -0.639053
vt 0.001435 -1.878018
vt 0.002035 -2.867167
vt 0.199457 2.358399
vt 0.248867 2.360780
vt 0.334563 1.605218
vt 0.335915 -0.622897
vt 0.201731 -1.389055
vt 0.251140 -1.386674
vt 0.001144 -1.398722
vt 0.914081 1.633147
vt 0.915433 -0.594967
vt 1.000669 -0.590860
vt 0.999317 1.637255
vt -0.001129 2.348732
vn 0.000000 0.000000 1.000000
vn 0.000000 0.000000 1.000000
vn 0.000000 0.000000 1.000000
vn 0.000000 0.000000 1.000000
vn 0.000000 1.000000 0.000000
vn 0.000000 1.000000 0.000000
vn 0.000000 1.000000 0.000000
vn 0.000000 1.000000 0.000000
vn 0.000000 0.000000 -1.000000
vn 0.000000 0.000000 -1.000000
vn 0.000000 0.000000 -1.000000
vn 0.000000 0.000000 -1.000000
vn 0.000000 -1.000000 0.000000
vn 0.000000 -1.000000 0.000000
vn 0.000000 -1.000000 0.000000
vn 0.000000 -1.000000 0.000000
vn 1.000000 0.000000 0.000000
vn 1.000000 0.000000 0.000000
vn 1.000000 0.000000 0.000000
vn 1.000000 0.000000 0.000000
vn -1.000000 0.000000 0.000000
vn -1.000000 0.000000 0.000000
vn -1.000000 0.000000 0.000000
vn -1.000000 0.000000 0.000000
vn 0.000000 1.000000 0.000000
vn 0.000000 1.000000 0.000000
vn 0.000000 1.000000 0.000000
vn 0.000000 1.000000 0.000000
vn -1.000000 0.000000 0.000000
vn -1.000000 0.000000 0.000000
vn -1.000000 0.000000 0.000000
vn -1.000000 0.000000 0.000000
vn 0.000000 -1.000000 0.000000
vn 0.000000 -1.000000 0.000000
vn 0.000000 -1.000000 0.000000
vn 0.000000 -1.000000 0.000000
vn 1.000000 0.000000 0.000000
vn 1.000000 0.000000 0.000000
vn 1.000000 0.000000 0.000000
vn 1.000000 0.000000 0.000000
vn 1.000000 0.000000 0.000000
vn 1.000000 0.000000 0.000000
vn 1.000000 0.000000 0.000000
vn 0.000000 0.000000 1.000000
vn 0.000000 0.000000 1.000000
vn -1.000000 0.000000 0.000000
vn -1.000000 0.000000 0.000000
vn -1.000000 0.000000 0.000000
vn -1.000000 0.000000 0.000000
vn 0.000000 0.000000 -1.000000
vn 0.000000 0.000000 -1.000000
vn 1.000000 0.000000 0.000000
vn 0.000000 -1.000000 0.000000
vn 0.000000 -1.000000 0.000000
vn 0.000000 -1.000000 0.000000
vn 0.000000 -1.000000 0.000000
vn 0.000000 0.000000 -1.000000
vn 0.000000 0.000000 -1.000000
vn 0.000000 0.000000 -1.000000
vn 0.000000 0.000000 -1.000000
vn 0.000000 0.000000 1.000000
vn 0.000000 0.000000 1.000000
vn 0.000000 0.000000 1.000000
vn 0.000000 0.000000 1.000000
vn 1.000000 0.000000 0.000000
vn 1.000000 0.000000 0.000000
vn 1.000000 0.000000 0.000000
vn 1.000000 0.000000 0.000000
vn 0.000000 1.000000 0.000000
vn 0.000000 1.000000 0.000000
vn 0.000000 1.000000 0.000000
vn 0.000000 1.000000 0.000000
vn -1.000000 0.000000 0.000000
vn -1.000000 0.000000 0.000000
vn -1.000000 0.000000 0.000000
vn -1.000000 0.000000 0.000000
vn 0.000000 -1.000000 0.000000
vn 0.000000 -1.000000 0.000000
vn 0.000000 -1.000000 0.000000
vn 0.000000 -1.000000 0.000000
vn 0.000000 0.000000 -1.000000
vn 0.000000 0.000000 -1.000000
vn 0.000000 0.000000 -1.000000
vn 0.000000 0.000000 -1.000000
vn 0.000000 0.000000 1.000000
vn 0.000000 0.000000 1.000000
vn 0.000000 0.000000 1.000000
vn 0.000000 0.000000 1.000000
vn 0.000000 0.000000 1.000000
vn 0.000000 0.000000 1.000000
vn 0.000000 0.000000 1.000000
vn 0.000000 0.000000 1.000000
vn 0.000000 1.000000 0.000000
vn 0.000000 1.000000 0.000000
vn 0.000000 1.000000 0.000000
vn 0.000000 1.000000 0.000000
vn 0.000000 0.000000 -1.000000
vn 0.000000 0.000000 -1.000000
vn 0.000000 0.000000 -1.000000
vn 0.000000 0.000000 -1.000000
vn 0.000000 -1.000000 0.000000
vn 0.000000 -1.000000 0.000000
vn 0.000000 -1.000000 0.000000
vn 0.000000 -1.000000 0.000000
vn 1.000000 0.000000 0.000000
vn 1.000000 0.000000 0.000000
vn 1.000000 0.000000 0.000000
vn 1.000000 0.000000 0.000000
vn -1.000000 0.000000 0.000000
vn -1.000000 0.000000 0.000000
vn -1.000000 0.000000 0.000000
vn -1.000000 0.000000 0.000000
vn 1.000000 0.000000 0.000000
vn 1.000000 0.000000 0.000000
vn 1.000000 0.000000 0.000000
vn 1.000000 0.000000 0.000000
vn 0.000000 1.000000 0.000000
vn 0.000000 1.000000 0.000000
vn 0.000000 1.000000 0.000000
vn 0.000000 1.000000 0.000000
vn -1.000000 0.000000 0.000000
vn -1.000000 0.000000 0.000000
vn -1.000000 0.000000 0.000000
vn -1.000000 0.000000 0.000000
vn 0.000000 -1.000000 0.000000
vn 0.000000 -1.000000 0.000000
vn 0.000000 -1.000000 0.000000
vn 0.000000 -1.000000 0.000000
vn 0.000000 0.000000 -1.000000
vn 0.000000 0.000000 -1.000000
vn 0.000000 0.000000 -1.000000
vn 0.000000 0.000000 -1.000000
vn 0.000000 0.000000 1.000000
vn 0.000000 0.000000 1.000000
vn 0.000000 0.000000 1.000000
vn 0.000000 0.000000 1.000000
vn 0.000000 0.000000 1.000000
vn 0.000000 0.000000 1.000000
vn 1.000000 0.000000 0.000000
vn 1.000000 0.000000 0.000000
vn 0.000000 0.000000 -1.000000
vn 0.000000 0.000000 -1.000000
vn -1.000000 0.000000 0.000000
vn -1.000000 0.000000 0.000000
vn 0.000000 0.000000 1.000000
vn 0.000000 0.000000 1.000000
vn 0.000000 1.000000 0.000000
vn 0.000000 1.000000 0.000000
vn 0.000000 0.000000 -1.000000
vn 0.000000 0.000000 -1.000000
vn 0.000000 0.000000 1.000000
vn 0.000000 0.000000 1.000000
vn 0.000000 1.000000 0.000000
vn 0.000000 1.000000 0.000000
vn 0.000000 0.000000 -1.000000
vn 0.000000 0.000000 -1.000000
vn 0.000000 0.000000 -1.000000
vn 0.000000 0.000000 -1.000000
vn 0.000000 -1.000000 0.000000
vn 0.000000 -1.000000 0.000000
vn 0.000000 -1.000000 0.000000
vn 0.000000 -1.000000 0.000000
vn 0.000000 0.000000 1.000000
vn 0.000000 0.000000 1.000000
vn 0.000000 -1.000000 0.000000
vn 0.000000 -1.000000 0.000000
vn 0.000000 -1.000000 0.000000
vn 0.000000 -1.000000 0.000000
vn -1.000000 0.000000 0.000000
vn -1.000000 0.000000 0.000000
vn -1.000000 0.000000 0.000000
vn -1.000000 0.000000 0.000000
vn 1.000000 0.000000 0.000000
vn 1.000000 0.000000 0.000000
vn 1.000000 0.000000 0.000000
vn 1.000000 0.000000 0.000000
s 1
g RetiroPared
usemtl lambert3SG
f 1/1/1 2/2/2 19/33/3 20/34/4
s 2
f 3/3/5 4/4/6 14/26/7
f 14/26/7 4/4/6 13/23/8
s 3
f 23/38/9 24/39/10 8/8/11 7/7/12
s 4
f 15/28/13 16/29/14 1/9/15
f 1/9/15 16/29/14 2/10/16
s 5
f 2/2/17 16/30/18 19/33/19
f 19/33/19 16/30/18 18/32/20
s 6
f 15/27/21 1/1/22 21/35/23
f 21/35/23 1/1/22 20/34/24
s 2
f 10/18/25 9/15/26 5/5/27
f 5/5/27 9/15/26 6/6/28
s 6
f 7/13/29 11/19/30 23/37/31
f 23/37/31 11/19/30 22/36/32
s 9
f 7/7/33 8/8/34 11/20/35
f 11/20/35 8/8/34 12/21/36
s 5
f 24/40/37 17/31/38 8/11/39
f 8/11/39 17/31/38 12/22/40
s 2
f 14/26/7 13/23/8 10/18/25
f 10/18/25 13/23/8 9/15/26
s 5
f 13/24/41 18/32/20 9/16/42
f 9/16/42 18/32/20 17/31/38
f 19/33/19 18/32/20 4/4/43
f 4/4/43 18/32/20 13/24/41
s 1
f 20/34/4 19/33/3 4/4/44 3/3/45
s 6
f 21/35/23 20/34/24 14/25/46
f 14/25/46 20/34/24 3/3/47
f 22/36/32 21/35/23 10/17/48
f 10/17/48 21/35/23 14/25/46
f 23/37/31 22/36/32 5/14/49
f 5/14/49 22/36/32 10/17/48
s 3
f 5/5/50 6/6/51 24/39/10 23/38/9
s 5
f 9/16/42 17/31/38 6/12/52
f 6/12/52 17/31/38 24/40/37
s 12
f 17/31/53 18/32/54 22/36/55
f 22/36/55 18/32/54 21/35/56
s 13
f 16/29/57 15/27/58 18/32/59
f 18/32/59 15/27/58 21/35/60
s 14
f 12/22/61 17/31/62 11/20/63
f 11/20/63 17/31/62 22/36/64
s 15
f 25/41/65 26/42/66 27/44/67
f 27/44/67 26/42/66 28/43/68
s 16
f 27/44/69 28/43/70 29/46/71
f 29/46/71 28/43/70 30/45/72
s 17
f 29/46/73 30/45/74 31/48/75
f 31/48/75 30/45/74 32/47/76
s 18
f 31/48/77 32/47/78 25/50/79
f 25/50/79 32/47/78 26/49/80
s 19
f 26/42/81 32/51/82 28/43/83
f 28/43/83 32/51/82 30/52/84
s 20
f 31/53/85 25/41/86 29/54/87
f 29/54/87 25/41/86 27/44/88
s off
f 33/55/89 34/56/90 36/57/91 35/58/92
s 21
f 35/58/93 36/57/94 37/60/95
f 37/60/95 36/57/94 38/59/96
s off
f 37/60/97 38/59/98 40/61/99 39/62/100
s 22
f 39/62/101 40/61/102 33/64/103
f 33/64/103 40/61/102 34/63/104
s 23
f 34/56/105 40/65/106 36/57/107
f 36/57/107 40/65/106 38/66/108
s 24
f 39/67/109 33/55/110 37/68/111
f 37/68/111 33/55/110 35/58/112
s 25
f 50/69/113 51/70/114 44/71/115 43/72/116
s 26
f 54/73/117 55/74/118 45/76/119
f 45/76/119 55/74/118 46/75/120
s 27
f 45/76/121 46/75/122 49/78/123
f 49/78/123 46/75/122 52/77/124
s 28
f 47/79/125 48/80/126 58/82/127
f 58/82/127 48/80/126 57/81/128
s 29
f 56/83/129 52/84/130 55/86/131
f 55/86/131 52/84/130 46/85/132
s 30
f 49/87/133 53/88/134 45/90/135
f 45/90/135 53/88/134 54/89/136
f 47/91/137 58/92/138 49/87/133
f 49/87/133 58/92/138 53/88/134
s 25
f 41/93/139 42/94/140 51/70/114 50/69/113
s 29
f 57/95/141 48/96/142 56/83/129
f 56/83/129 48/96/142 52/84/130
s 27
f 49/78/123 52/77/124 47/79/143
f 47/79/143 52/77/124 48/80/144
s 30
f 53/88/134 59/97/145 54/89/136
f 54/89/136 59/97/145 60/98/146
s 26
f 60/99/147 61/100/148 54/73/117
f 54/73/117 61/100/148 55/74/118
s 29
f 62/101/149 56/83/129 61/102/150
f 61/102/150 56/83/129 55/86/131
s 30
f 59/97/145 50/69/151 60/98/146
f 60/98/146 50/69/151 43/72/152
s 26
f 43/72/153 44/71/154 60/99/147
f 60/99/147 44/71/154 61/100/148
s 29
f 51/70/155 62/101/149 44/71/156
f 44/71/156 62/101/149 61/102/150
f 42/94/157 63/103/158 51/70/155
f 51/70/155 63/103/158 62/101/149
s 33
f 64/104/159 63/105/160 41/107/161
f 41/107/161 63/105/160 42/106/162
s 30
f 59/97/145 64/108/163 50/69/151
f 50/69/151 64/108/163 41/93/164
s 34
f 59/97/165 53/88/166 62/101/167
f 62/101/167 53/88/166 56/83/168
s 35
f 63/105/169 64/108/170 62/101/171
f 62/101/171 64/108/170 59/97/172
s 36
f 57/95/173 56/83/174 58/82/175
f 58/82/175 56/83/174 53/88/176
