# This file uses centimeters as units for non-parametric coordinates.

mtllib Sky.mtl
g default
v -11.659697 3.363219 11.659697
v -9.327758 4.314366 11.659697
v -6.995819 5.159374 11.659697
v -4.663879 5.822720 11.659697
v -2.331939 6.245643 11.659697
v 0.000000 6.390868 11.659697
v 2.331940 6.245643 11.659697
v 4.663879 5.822720 11.659697
v 6.995819 5.159374 11.659697
v 9.327759 4.314366 11.659697
v 11.659697 3.363219 11.659697
v -11.659697 4.314366 9.327758
v -9.327758 5.418586 9.327758
v -6.995819 6.390868 9.327758
v -4.663879 7.149712 9.327758
v -2.331939 7.631820 9.327758
v 0.000000 7.797093 9.327758
v 2.331940 7.631820 9.327758
v 4.663879 7.149712 9.327758
v 6.995819 6.390868 9.327758
v 9.327759 5.418586 9.327758
v 11.659697 4.314366 9.327758
v -11.659697 5.159374 6.995819
v -9.327758 6.390868 6.995819
v -6.995819 7.468843 6.995819
v -4.663879 8.306909 6.995819
v -2.331939 8.838081 6.995819
v 0.000000 9.019972 6.995819
v 2.331940 8.838081 6.995819
v 4.663879 8.306909 6.995819
v 6.995819 7.468843 6.995819
v 9.327759 6.390868 6.995819
v 11.659697 5.159374 6.995819
v -11.659697 5.822720 4.663879
v -9.327758 7.149712 4.663879
v -6.995819 8.306909 4.663879
v -4.663879 9.204317 4.663879
v -2.331939 9.772229 4.663879
v 0.000000 9.966566 4.663879
v 2.331940 9.772229 4.663879
v 4.663879 9.204317 4.663879
v 6.995819 8.306909 4.663879
v 9.327759 7.149712 4.663879
v 11.659697 5.822720 4.663879
v -11.659697 6.245643 2.331939
v -9.327758 7.631820 2.331939
v -6.995819 8.838081 2.331939
v -4.663879 9.772229 2.331939
v -2.331939 10.362886 2.331939
v 0.000000 10.564912 2.331939
v 2.331940 10.362886 2.331939
v 4.663879 9.772229 2.331939
v 6.995819 8.838081 2.331939
v 9.327759 7.631820 2.331939
v 11.659697 6.245643 2.331939
v -11.659697 6.390868 0.000000
v -9.327758 7.797093 0.000000
v -6.995819 9.019972 0.000000
v -4.663879 9.966566 0.000000
v -2.331939 10.564912 0.000000
v 0.000000 10.769549 0.000000
v 2.331940 10.564912 0.000000
v 4.663879 9.966566 0.000000
v 6.995819 9.019972 0.000000
v 9.327759 7.797093 0.000000
v 11.659697 6.390868 0.000000
v -11.659697 6.245643 -2.331940
v -9.327758 7.631820 -2.331940
v -6.995819 8.838081 -2.331940
v -4.663879 9.772229 -2.331940
v -2.331939 10.362886 -2.331940
v 0.000000 10.564912 -2.331940
v 2.331940 10.362886 -2.331940
v 4.663879 9.772229 -2.331940
v 6.995819 8.838081 -2.331940
v 9.327759 7.631820 -2.331940
v 11.659697 6.245643 -2.331940
v -11.659697 5.822720 -4.663879
v -9.327758 7.149712 -4.663879
v -6.995819 8.306909 -4.663879
v -4.663879 9.204317 -4.663879
v -2.331939 9.772229 -4.663879
v 0.000000 9.966566 -4.663879
v 2.331940 9.772229 -4.663879
v 4.663879 9.204317 -4.663879
v 6.995819 8.306909 -4.663879
v 9.327759 7.149712 -4.663879
v 11.659697 5.822720 -4.663879
v -11.659697 5.159374 -6.995819
v -9.327758 6.390868 -6.995819
v -6.995819 7.468843 -6.995819
v -4.663879 8.306909 -6.995819
v -2.331939 8.838081 -6.995819
v 0.000000 9.019972 -6.995819
v 2.331940 8.838081 -6.995819
v 4.663879 8.306909 -6.995819
v 6.995819 7.468843 -6.995819
v 9.327759 6.390868 -6.995819
v 11.659697 5.159374 -6.995819
v -11.659697 4.314366 -9.327759
v -9.327758 5.418586 -9.327759
v -6.995819 6.390868 -9.327759
v -4.663879 7.149712 -9.327759
v -2.331939 7.631820 -9.327759
v 0.000000 7.797093 -9.327759
v 2.331940 7.631820 -9.327759
v 4.663879 7.149712 -9.327759
v 6.995819 6.390868 -9.327759
v 9.327759 5.418586 -9.327759
v 11.659697 4.314366 -9.327759
v -11.659697 3.363219 -11.659697
v -9.327758 4.314366 -11.659697
v -6.995819 5.159374 -11.659697
v -4.663879 5.822720 -11.659697
v -2.331939 6.245643 -11.659697
v 0.000000 6.390868 -11.659697
v 2.331940 6.245643 -11.659697
v 4.663879 5.822720 -11.659697
v 6.995819 5.159374 -11.659697
v 9.327759 4.314366 -11.659697
v 11.659697 3.363219 -11.659697
vt 0.000000 0.000000
vt 0.100000 0.000000
vt 0.200000 0.000000
vt 0.300000 0.000000
vt 0.400000 0.000000
vt 0.500000 0.000000
vt 0.600000 0.000000
vt 0.700000 0.000000
vt 0.800000 0.000000
vt 0.900000 0.000000
vt 1.000000 0.000000
vt 0.000000 0.100000
vt 0.100000 0.100000
vt 0.200000 0.100000
vt 0.300000 0.100000
vt 0.400000 0.100000
vt 0.500000 0.100000
vt 0.600000 0.100000
vt 0.700000 0.100000
vt 0.800000 0.100000
vt 0.900000 0.100000
vt 1.000000 0.100000
vt 0.000000 0.200000
vt 0.100000 0.200000
vt 0.200000 0.200000
vt 0.300000 0.200000
vt 0.400000 0.200000
vt 0.500000 0.200000
vt 0.600000 0.200000
vt 0.700000 0.200000
vt 0.800000 0.200000
vt 0.900000 0.200000
vt 1.000000 0.200000
vt 0.000000 0.300000
vt 0.100000 0.300000
vt 0.200000 0.300000
vt 0.300000 0.300000
vt 0.400000 0.300000
vt 0.500000 0.300000
vt 0.600000 0.300000
vt 0.700000 0.300000
vt 0.800000 0.300000
vt 0.900000 0.300000
vt 1.000000 0.300000
vt 0.000000 0.400000
vt 0.100000 0.400000
vt 0.200000 0.400000
vt 0.300000 0.400000
vt 0.400000 0.400000
vt 0.500000 0.400000
vt 0.600000 0.400000
vt 0.700000 0.400000
vt 0.800000 0.400000
vt 0.900000 0.400000
vt 1.000000 0.400000
vt 0.000000 0.500000
vt 0.100000 0.500000
vt 0.200000 0.500000
vt 0.300000 0.500000
vt 0.400000 0.500000
vt 0.500000 0.500000
vt 0.600000 0.500000
vt 0.700000 0.500000
vt 0.800000 0.500000
vt 0.900000 0.500000
vt 1.000000 0.500000
vt 0.000000 0.600000
vt 0.100000 0.600000
vt 0.200000 0.600000
vt 0.300000 0.600000
vt 0.400000 0.600000
vt 0.500000 0.600000
vt 0.600000 0.600000
vt 0.700000 0.600000
vt 0.800000 0.600000
vt 0.900000 0.600000
vt 1.000000 0.600000
vt 0.000000 0.700000
vt 0.100000 0.700000
vt 0.200000 0.700000
vt 0.300000 0.700000
vt 0.400000 0.700000
vt 0.500000 0.700000
vt 0.600000 0.700000
vt 0.700000 0.700000
vt 0.800000 0.700000
vt 0.900000 0.700000
vt 1.000000 0.700000
vt 0.000000 0.800000
vt 0.100000 0.800000
vt 0.200000 0.800000
vt 0.300000 0.800000
vt 0.400000 0.800000
vt 0.500000 0.800000
vt 0.600000 0.800000
vt 0.700000 0.800000
vt 0.800000 0.800000
vt 0.900000 0.800000
vt 1.000000 0.800000
vt 0.000000 0.900000
vt 0.100000 0.900000
vt 0.200000 0.900000
vt 0.300000 0.900000
vt 0.400000 0.900000
vt 0.500000 0.900000
vt 0.600000 0.900000
vt 0.700000 0.900000
vt 0.800000 0.900000
vt 0.900000 0.900000
vt 1.000000 0.900000
vt 0.000000 1.000000
vt 0.100000 1.000000
vt 0.200000 1.000000
vt 0.300000 1.000000
vt 0.400000 1.000000
vt 0.500000 1.000000
vt 0.600000 1.000000
vt 0.700000 1.000000
vt 0.800000 1.000000
vt 0.900000 1.000000
vt 1.000000 1.000000
vn -0.353313 0.866222 0.353313
vn -0.346242 0.853680 0.389033
vn -0.389033 0.853680 0.346242
vn -0.377014 0.846003 0.377014
vn -0.290788 0.851324 0.436681
vn -0.316335 0.850330 0.420561
vn -0.210835 0.853791 0.476015
vn -0.229732 0.859589 0.456431
vn -0.111549 0.856898 0.503272
vn -0.121841 0.868465 0.480546
vn -0.000000 0.858129 0.513435
vn 0.000000 0.872175 0.489195
vn 0.111549 0.856898 0.503272
vn 0.121841 0.868465 0.480546
vn 0.210835 0.853791 0.476015
vn 0.229732 0.859590 0.456431
vn 0.290788 0.851324 0.436680
vn 0.316335 0.850330 0.420561
vn 0.346242 0.853680 0.389033
vn 0.377014 0.846003 0.377014
vn 0.353313 0.866222 0.353313
vn 0.389033 0.853680 0.346242
vn -0.436681 0.851324 0.290788
vn -0.420561 0.850330 0.316335
vn -0.355122 0.864740 0.355122
vn -0.259846 0.884115 0.388357
vn -0.138513 0.900871 0.411394
vn 0.000000 0.907625 0.419781
vn 0.138513 0.900871 0.411394
vn 0.259846 0.884115 0.388357
vn 0.355122 0.864741 0.355122
vn 0.420561 0.850330 0.316335
vn 0.436681 0.851324 0.290788
vn -0.476015 0.853791 0.210834
vn -0.456431 0.859590 0.229732
vn -0.388357 0.884115 0.259846
vn -0.286588 0.914185 0.286588
vn -0.153672 0.939663 0.305644
vn 0.000000 0.949864 0.312663
vn 0.153672 0.939663 0.305644
vn 0.286588 0.914185 0.286589
vn 0.388357 0.884115 0.259846
vn 0.456431 0.859590 0.229732
vn 0.476015 0.853791 0.210835
vn -0.503272 0.856898 0.111549
vn -0.480546 0.868465 0.121841
vn -0.411395 0.900871 0.138513
vn -0.305644 0.939663 0.153672
vn -0.164622 0.972522 0.164622
vn -0.000000 0.985675 0.168654
vn 0.164622 0.972522 0.164622
vn 0.305644 0.939663 0.153672
vn 0.411394 0.900871 0.138513
vn 0.480546 0.868465 0.121841
vn 0.503272 0.856898 0.111549
vn -0.513435 0.858129 -0.000000
vn -0.489195 0.872175 -0.000000
vn -0.419781 0.907625 -0.000000
vn -0.312663 0.949864 -0.000000
vn -0.168654 0.985675 0.000000
vn -0.000000 1.000000 0.000000
vn 0.168654 0.985675 -0.000000
vn 0.312663 0.949864 0.000000
vn 0.419781 0.907625 -0.000000
vn 0.489195 0.872175 -0.000000
vn 0.513435 0.858129 -0.000000
vn -0.480546 0.868465 -0.121841
vn -0.503272 0.856898 -0.111549
vn -0.411394 0.900871 -0.138513
vn -0.305644 0.939663 -0.153672
vn -0.164622 0.972522 -0.164622
vn -0.000000 0.985675 -0.168654
vn 0.164622 0.972522 -0.164622
vn 0.305644 0.939663 -0.153672
vn 0.411394 0.900871 -0.138513
vn 0.480546 0.868465 -0.121841
vn 0.503272 0.856898 -0.111549
vn -0.456431 0.859590 -0.229732
vn -0.476015 0.853791 -0.210835
vn -0.388357 0.884115 -0.259846
vn -0.286588 0.914185 -0.286588
vn -0.153672 0.939663 -0.305644
vn -0.000000 0.949864 -0.312663
vn 0.153672 0.939663 -0.305644
vn 0.286588 0.914185 -0.286589
vn 0.388357 0.884115 -0.259846
vn 0.456431 0.859590 -0.229732
vn 0.476015 0.853791 -0.210835
vn -0.420561 0.850330 -0.316335
vn -0.436681 0.851324 -0.290788
vn -0.355122 0.864741 -0.355122
vn -0.259846 0.884115 -0.388357
vn -0.138513 0.900871 -0.411394
vn 0.000000 0.907625 -0.419781
vn 0.138513 0.900871 -0.411394
vn 0.259846 0.884115 -0.388357
vn 0.355122 0.864741 -0.355122
vn 0.420561 0.850330 -0.316335
vn 0.436681 0.851324 -0.290788
vn -0.377014 0.846003 -0.377014
vn -0.389033 0.853680 -0.346242
vn -0.316335 0.850330 -0.420561
vn -0.229732 0.859590 -0.456431
vn -0.121841 0.868465 -0.480546
vn 0.000000 0.872175 -0.489195
vn 0.121841 0.868465 -0.480546
vn 0.229732 0.859589 -0.456431
vn 0.316335 0.850330 -0.420561
vn 0.377014 0.846003 -0.377014
vn 0.389033 0.853680 -0.346242
vn -0.346242 0.853680 -0.389033
vn -0.353313 0.866222 -0.353313
vn -0.290789 0.851324 -0.436681
vn -0.210835 0.853791 -0.476015
vn -0.111549 0.856898 -0.503272
vn -0.000000 0.858129 -0.513435
vn 0.111549 0.856898 -0.503272
vn 0.210835 0.853791 -0.476015
vn 0.290788 0.851324 -0.436681
vn 0.346242 0.853680 -0.389033
vn 0.353313 0.866222 -0.353313
s 1
g pPlane1
usemtl initialShadingGroup
f 1/1/1 2/2/2 12/12/3
f 12/12/3 2/2/2 13/13/4
f 2/2/2 3/3/5 13/13/4
f 13/13/4 3/3/5 14/14/6
f 3/3/5 4/4/7 14/14/6
f 14/14/6 4/4/7 15/15/8
f 4/4/7 5/5/9 15/15/8
f 15/15/8 5/5/9 16/16/10
f 5/5/9 6/6/11 16/16/10
f 16/16/10 6/6/11 17/17/12
f 7/7/13 18/18/14 6/6/11
f 6/6/11 18/18/14 17/17/12
f 8/8/15 19/19/16 7/7/13
f 7/7/13 19/19/16 18/18/14
f 9/9/17 20/20/18 8/8/15
f 8/8/15 20/20/18 19/19/16
f 10/10/19 21/21/20 9/9/17
f 9/9/17 21/21/20 20/20/18
f 11/11/21 22/22/22 10/10/19
f 10/10/19 22/22/22 21/21/20
f 12/12/3 13/13/4 23/23/23
f 23/23/23 13/13/4 24/24/24
f 13/13/4 14/14/6 24/24/24
f 24/24/24 14/14/6 25/25/25
f 14/14/6 15/15/8 25/25/25
f 25/25/25 15/15/8 26/26/26
f 15/15/8 16/16/10 26/26/26
f 26/26/26 16/16/10 27/27/27
f 16/16/10 17/17/12 27/27/27
f 27/27/27 17/17/12 28/28/28
f 18/18/14 29/29/29 17/17/12
f 17/17/12 29/29/29 28/28/28
f 19/19/16 30/30/30 18/18/14
f 18/18/14 30/30/30 29/29/29
f 20/20/18 31/31/31 19/19/16
f 19/19/16 31/31/31 30/30/30
f 21/21/20 32/32/32 20/20/18
f 20/20/18 32/32/32 31/31/31
f 22/22/22 33/33/33 21/21/20
f 21/21/20 33/33/33 32/32/32
f 23/23/23 24/24/24 34/34/34
f 34/34/34 24/24/24 35/35/35
f 24/24/24 25/25/25 35/35/35
f 35/35/35 25/25/25 36/36/36
f 25/25/25 26/26/26 36/36/36
f 36/36/36 26/26/26 37/37/37
f 26/26/26 27/27/27 37/37/37
f 37/37/37 27/27/27 38/38/38
f 27/27/27 28/28/28 38/38/38
f 38/38/38 28/28/28 39/39/39
f 29/29/29 40/40/40 28/28/28
f 28/28/28 40/40/40 39/39/39
f 30/30/30 41/41/41 29/29/29
f 29/29/29 41/41/41 40/40/40
f 31/31/31 42/42/42 30/30/30
f 30/30/30 42/42/42 41/41/41
f 32/32/32 43/43/43 31/31/31
f 31/31/31 43/43/43 42/42/42
f 33/33/33 44/44/44 32/32/32
f 32/32/32 44/44/44 43/43/43
f 34/34/34 35/35/35 45/45/45
f 45/45/45 35/35/35 46/46/46
f 35/35/35 36/36/36 46/46/46
f 46/46/46 36/36/36 47/47/47
f 36/36/36 37/37/37 47/47/47
f 47/47/47 37/37/37 48/48/48
f 37/37/37 38/38/38 48/48/48
f 48/48/48 38/38/38 49/49/49
f 38/38/38 39/39/39 49/49/49
f 49/49/49 39/39/39 50/50/50
f 40/40/40 51/51/51 39/39/39
f 39/39/39 51/51/51 50/50/50
f 41/41/41 52/52/52 40/40/40
f 40/40/40 52/52/52 51/51/51
f 42/42/42 53/53/53 41/41/41
f 41/41/41 53/53/53 52/52/52
f 43/43/43 54/54/54 42/42/42
f 42/42/42 54/54/54 53/53/53
f 44/44/44 55/55/55 43/43/43
f 43/43/43 55/55/55 54/54/54
f 45/45/45 46/46/46 56/56/56
f 56/56/56 46/46/46 57/57/57
f 46/46/46 47/47/47 57/57/57
f 57/57/57 47/47/47 58/58/58
f 47/47/47 48/48/48 58/58/58
f 58/58/58 48/48/48 59/59/59
f 48/48/48 49/49/49 59/59/59
f 59/59/59 49/49/49 60/60/60
f 49/49/49 50/50/50 60/60/60
f 60/60/60 50/50/50 61/61/61
f 51/51/51 62/62/62 50/50/50
f 50/50/50 62/62/62 61/61/61
f 52/52/52 63/63/63 51/51/51
f 51/51/51 63/63/63 62/62/62
f 53/53/53 64/64/64 52/52/52
f 52/52/52 64/64/64 63/63/63
f 54/54/54 65/65/65 53/53/53
f 53/53/53 65/65/65 64/64/64
f 55/55/55 66/66/66 54/54/54
f 54/54/54 66/66/66 65/65/65
f 57/57/57 68/68/67 56/56/56
f 56/56/56 68/68/67 67/67/68
f 58/58/58 69/69/69 57/57/57
f 57/57/57 69/69/69 68/68/67
f 59/59/59 70/70/70 58/58/58
f 58/58/58 70/70/70 69/69/69
f 60/60/60 71/71/71 59/59/59
f 59/59/59 71/71/71 70/70/70
f 61/61/61 72/72/72 60/60/60
f 60/60/60 72/72/72 71/71/71
f 61/61/61 62/62/62 72/72/72
f 72/72/72 62/62/62 73/73/73
f 62/62/62 63/63/63 73/73/73
f 73/73/73 63/63/63 74/74/74
f 63/63/63 64/64/64 74/74/74
f 74/74/74 64/64/64 75/75/75
f 64/64/64 65/65/65 75/75/75
f 75/75/75 65/65/65 76/76/76
f 65/65/65 66/66/66 76/76/76
f 76/76/76 66/66/66 77/77/77
f 68/68/67 79/79/78 67/67/68
f 67/67/68 79/79/78 78/78/79
f 69/69/69 80/80/80 68/68/67
f 68/68/67 80/80/80 79/79/78
f 70/70/70 81/81/81 69/69/69
f 69/69/69 81/81/81 80/80/80
f 71/71/71 82/82/82 70/70/70
f 70/70/70 82/82/82 81/81/81
f 72/72/72 83/83/83 71/71/71
f 71/71/71 83/83/83 82/82/82
f 72/72/72 73/73/73 83/83/83
f 83/83/83 73/73/73 84/84/84
f 73/73/73 74/74/74 84/84/84
f 84/84/84 74/74/74 85/85/85
f 74/74/74 75/75/75 85/85/85
f 85/85/85 75/75/75 86/86/86
f 75/75/75 76/76/76 86/86/86
f 86/86/86 76/76/76 87/87/87
f 76/76/76 77/77/77 87/87/87
f 87/87/87 77/77/77 88/88/88
f 79/79/78 90/90/89 78/78/79
f 78/78/79 90/90/89 89/89/90
f 80/80/80 91/91/91 79/79/78
f 79/79/78 91/91/91 90/90/89
f 81/81/81 92/92/92 80/80/80
f 80/80/80 92/92/92 91/91/91
f 82/82/82 93/93/93 81/81/81
f 81/81/81 93/93/93 92/92/92
f 83/83/83 94/94/94 82/82/82
f 82/82/82 94/94/94 93/93/93
f 83/83/83 84/84/84 94/94/94
f 94/94/94 84/84/84 95/95/95
f 84/84/84 85/85/85 95/95/95
f 95/95/95 85/85/85 96/96/96
f 85/85/85 86/86/86 96/96/96
f 96/96/96 86/86/86 97/97/97
f 86/86/86 87/87/87 97/97/97
f 97/97/97 87/87/87 98/98/98
f 87/87/87 88/88/88 98/98/98
f 98/98/98 88/88/88 99/99/99
f 90/90/89 101/101/100 89/89/90
f 89/89/90 101/101/100 100/100/101
f 91/91/91 102/102/102 90/90/89
f 90/90/89 102/102/102 101/101/100
f 92/92/92 103/103/103 91/91/91
f 91/91/91 103/103/103 102/102/102
f 93/93/93 104/104/104 92/92/92
f 92/92/92 104/104/104 103/103/103
f 94/94/94 105/105/105 93/93/93
f 93/93/93 105/105/105 104/104/104
f 94/94/94 95/95/95 105/105/105
f 105/105/105 95/95/95 106/106/106
f 95/95/95 96/96/96 106/106/106
f 106/106/106 96/96/96 107/107/107
f 96/96/96 97/97/97 107/107/107
f 107/107/107 97/97/97 108/108/108
f 97/97/97 98/98/98 108/108/108
f 108/108/108 98/98/98 109/109/109
f 98/98/98 99/99/99 109/109/109
f 109/109/109 99/99/99 110/110/110
f 101/101/100 112/112/111 100/100/101
f 100/100/101 112/112/111 111/111/112
f 102/102/102 113/113/113 101/101/100
f 101/101/100 113/113/113 112/112/111
f 103/103/103 114/114/114 102/102/102
f 102/102/102 114/114/114 113/113/113
f 104/104/104 115/115/115 103/103/103
f 103/103/103 115/115/115 114/114/114
f 105/105/105 116/116/116 104/104/104
f 104/104/104 116/116/116 115/115/115
f 105/105/105 106/106/106 116/116/116
f 116/116/116 106/106/106 117/117/117
f 106/106/106 107/107/107 117/117/117
f 117/117/117 107/107/107 118/118/118
f 107/107/107 108/108/108 118/118/118
f 118/118/118 108/108/108 119/119/119
f 108/108/108 109/109/109 119/119/119
f 119/119/119 109/109/109 120/120/120
f 109/109/109 110/110/110 120/120/120
f 120/120/120 110/110/110 121/121/121
