# This file uses centimeters as units for non-parametric coordinates.

mtllib Techo.mtl
g default
v 1.828972 2.090949 -5.044615
v 4.828972 2.090949 -5.044615
v 1.828972 2.140855 -5.041554
v 4.828972 2.140855 -5.041554
v 1.828972 2.263315 -7.037801
v 4.828972 2.263315 -7.037801
v 1.828972 2.213409 -7.040863
v 4.828972 2.213409 -7.040863
vt 0.375000 0.000000
vt 0.625000 0.000000
vt 0.033937 0.108835
vt 0.966063 0.108835
vt 0.033937 0.844808
vt 0.966063 0.844808
vt 0.033937 0.094504
vt 0.625000 0.750000
vt 0.033937 0.830477
vt 0.966063 0.830477
vt 0.875000 0.000000
vt 0.875000 0.250000
vt 0.125000 0.000000
vt 0.125000 0.250000
vt 0.966063 0.094504
vt 0.375000 0.750000
vn 0.000000 -0.061230 0.998124
vn 0.000000 -0.061230 0.998124
vn 0.000000 -0.061230 0.998124
vn 0.000000 -0.061230 0.998124
vn 0.000000 0.998124 0.061230
vn 0.000000 0.998124 0.061230
vn 0.000000 0.998124 0.061230
vn 0.000000 0.998124 0.061230
vn 0.000000 0.061230 -0.998124
vn 0.000000 0.061230 -0.998124
vn 0.000000 0.061230 -0.998124
vn 0.000000 0.061230 -0.998124
vn 0.000000 -0.998124 -0.061230
vn 0.000000 -0.998124 -0.061230
vn 0.000000 -0.998124 -0.061230
vn 0.000000 -0.998124 -0.061230
vn 1.000000 0.000000 0.000000
vn 1.000000 0.000000 0.000000
vn 1.000000 0.000000 0.000000
vn 1.000000 0.000000 0.000000
vn -1.000000 0.000000 0.000000
vn -1.000000 0.000000 0.000000
vn -1.000000 0.000000 0.000000
vn -1.000000 0.000000 0.000000
s 1
g pCube41
usemtl lambert9SG
f 1/1/1 2/2/2 3/3/3
f 3/3/3 2/2/2 4/4/4
s 2
f 3/3/5 4/4/6 5/5/7
f 5/5/7 4/4/6 6/6/8
s 3
f 5/5/9 6/6/10 7/16/11
f 7/16/11 6/6/10 8/8/12
s 4
f 7/7/13 8/15/14 1/9/15
f 1/9/15 8/15/14 2/10/16
s 5
f 2/2/17 8/11/18 4/4/19
f 4/4/19 8/11/18 6/12/20
s 6
f 7/13/21 1/1/22 5/14/23
f 5/14/23 1/1/22 3/3/24
